<?xml version="1.0" encoding="UTF-8" standalone="no"?>
<svg
  xmlns:svg="http://www.w3.org/2000/svg"
  xmlns="http://www.w3.org/2000/svg"
  xmlns:inkscape="http://www.inkscape.org/namespaces/inkscape"
  version="1.1"
  x="0px"
  y="0px"
  width="64"
  height="64"
  viewBox="0 0 64 64"
  xml:space="preserve">
  <path
    inkscape:connector-curvature="0"
    style="fill:#c23114;stroke-width:0.15803115"
    d="m 58.005508,38.533769 c -6.874282,-5.03892 -7.006518,-10.787507 -3.415453,-15.863605 -7.610263,4.2388 -11.895401,9.479832 -8.903056,14.771876 0.379731,0.673078 0.623238,1.332454 0.801366,2.005653 l 0.06811,0.811794 L 46.1319,40.348397 44.324844,38 C 41.757284,34.003232 41.37881,29.78922 43.900479,25.461393 48.921598,16.984379 42.361454,8.683863 30.3992,2.009078 c 5.512332,8.070757 4.999327,17.247183 -6.158625,25.369661 -2.143197,1.548395 -3.905409,3.122288 -5.310945,4.733364 l -0.849147,1.065511 0.0679,-0.278622 c 2.253426,-5.456735 -2.655996,-10.406755 -10.8243279,-14.13729 4.2398719,4.834659 4.8876289,10.571683 -1.272254,16.028418 -5.15586796,5.634063 -6.47296886,12.627629 -2.432812,17.81837 6.316427,7.5004 14.7081509,10.9522 26.1123359,11.12953 1.650516,0.0124 3.347343,-0.0248 5.088809,-0.1523 9.306043,-0.57107 20.933414,-3.15876 24.68207,-9.28869 3.70381,-5.25581 5.46728,-10.637469 -1.496694,-15.763261 z"/>
  <path
    inkscape:connector-curvature="0"
    style="fill:#f9ff1a;fill-opacity:1;stroke-width:0.07274026"
    d="m 44.264955,52.418478 c -3.24211,-2.263609 -3.304476,-4.846017 -1.610826,-7.126327 -3.58922,1.904174 -5.610215,4.258577 -4.198939,6.635895 0.179093,0.302364 0.293937,0.598572 0.377948,0.900989 l 0.03212,0.364679 -0.200241,0.03994 -0.85226,-1.054958 c -1.210936,-1.795448 -1.389435,-3.688488 -0.200143,-5.632656 2.368105,-3.808086 -0.725849,-7.536885 -6.367594,-10.535365 2.599776,3.625585 2.357828,7.747865 -2.904585,11.396685 -1.010794,0.695578 -1.841904,1.40261 -2.504795,2.126345 l -0.400483,0.478654 0.03202,-0.125164 c 1.062781,-2.451301 -1.252645,-4.674974 -5.105066,-6.350823 1.999646,2.171849 2.305147,4.749064 -0.600032,7.200365 -2.431656,2.530962 -3.052839,5.672647 -1.147384,8.004457 2.979009,3.369367 6.936789,4.920002 12.315332,4.999663 0.778431,0.0056 1.578704,-0.01114 2.40003,-0.06842 4.388999,-0.256539 9.872803,-1.418994 11.640778,-4.172712 1.746823,-2.361041 2.578527,-4.778616 -0.705885,-7.08125 z"/>
</svg>
