<?xml version="1.0" encoding="UTF-8" standalone="no"?>
<svg
    version="1.1"
    viewBox="0 0 86 86"
    xml:space="preserve"
    xmlns:xlink="http://www.w3.org/1999/xlink"
    xmlns="http://www.w3.org/2000/svg">
  <defs>
    <linearGradient
        id="linearGradient160341"
        x1="43"
        y1="0.3"
        x2="43"
        y2="85.717087"
        gradientUnits="userSpaceOnUse"
        spreadMethod="pad">
      <stop
          offset="0"
          style="stop-color:#030031;stop-opacity:1"/>
      <stop
          offset="1"
          style="stop-color:#0b00cb;stop-opacity:1"/>
    </linearGradient>
    <linearGradient
        xlink:href="#linearGradient160341"
        id="linearGradient159940"
        x1="43"
        y1="0.3"
        x2="43"
        y2="85.717087"
        gradientUnits="userSpaceOnUse"/>
    <linearGradient
        xlink:href="#linearGradient160341"
        id="linearGradient162976"
        x1="43"
        y1="0.3"
        x2="43"
        y2="85.008369"
        gradientUnits="userSpaceOnUse"/>
  </defs>
  <rect
      style="opacity:0;fill:#ffffff"
      width="86"
      height="86"/>
  <g
      style="fill:url(#linearGradient159940);fill-opacity:1">
    <linearGradient
        id="SVGID_1_"
        gradientUnits="userSpaceOnUse"
        x1="-612"
        y1="-49.3"
        x2="-612"
        y2="-134.7"
        gradientTransform="translate(655,135)"
        style="fill:url(#linearGradient159940);fill-opacity:1">
      <stop
          offset="0"
          style="stop-color:#000b61;stop-opacity:1;fill-opacity:1.0;fill:url(#linearGradient159940)"/>
      <stop
          offset="1"
          style="stop-color:#202020;stop-opacity:1;fill-opacity:1.0;fill:url(#linearGradient159940)"/>
    </linearGradient>
    <path
        style="fill:url(#linearGradient162976);fill-opacity:1"
        d="M 43,0.3 C 19.419,0.3 0.3,19.417 0.3,43 v 39.285 c 0,1.879 1.537,3.414952 3.415,3.415 L 43,85.701 82.285,85.7 c 1.879,-4.8e-5 3.415,-1.536 3.415,-3.415 V 43 C 85.7,19.417 66.583,0.3 43,0.3 Z"/>
  </g>
  <g
      transform="matrix(0.15814785,0,0,0.15814785,-280.64108,21.683006)">
    <path
        style="fill:#ae0011;fill-opacity:1"
        d="m 2316.4468,383.1983 -21.5937,21.5937 h -496.8136 l -21.5937,-21.5937 v -33.4181 h 540 z"/>
    <path
        style="opacity:1;fill:#cf0009"
        d="m 1776.4458,383.1983 21.5878,21.5878 h 17.4135 c 1.8032,-0.42549 2.8391,-1.8212 3.7173,-2.9393 1.5926,-2.02747 1.6092,-2.03273 3.5074,-0.0493 1.0468,1.0921 4.1297,2.7758 4.8165,2.9887 h 113.6323 c -1.2416,-0.0929 -1.2115,-0.0487 0.1482,-0.4075 1.0603,-0.2795 2.3181,-2.5858 3.3469,-6.1379 1.6549,-5.7135 3.0183,-8.188 4.5077,-8.188 1.3072,0 6.7533,8.74758 6.4714,14.7335 h 279.9744 l 6.459,-0.6545 c 5.8453,-0.59331 6.5228,-0.8028 7.0519,-3.0628 0.816,-3.4856 3.3632,-3.6168 5.9774,-0.3088 l 3.1863,4.0261 h 36.6054 l 21.5976,-21.5878 v -33.4182 h -540 z"/>
    <path
       style="opacity:1;fill:#f50700"
       d="m 1776.4458,383.1983 21.5878,21.5878 h 17.9692 c 0,0 -0.3055,-1.8092 1.4573,-5.44635 2.2534,-3.4324 4.3729,-3.176 8.1757,0.9756 3.203,3.4969 3.9644,4.4707 3.9644,4.4707 h 112.4714 c -0.4721,0 -0.01,-5.01895 1.0497,-8.73145 2.5908,-9.13735 3.895,-11.3992 6.3479,-11.041 2.0637,0.3014 7.5768,10.8942 8,19.7723 h 281.8516 c 1.4143,0 1.7685,-4.691 1.7537,-7.29885 0,-2.93788 0.9793,-4.86 2.4453,-7.17535 0,0 1.3342,-2.74545 2.4453,-3 1.111,-0.2556 3.8038,2.11184 3.8038,2.1118 4.6738,4.4552 9.8021,12.6019 9.7565,15.3634 h 35.321 l 21.5977,-21.5878 v -46.0645 h -540 z"/>
    <path
       style="fill:#fd2f00"
       d="m 2002.2209,162.0311 c -4.1147,6.04267 -10.8505,14.0396 -16.3267,19.4018 -9.0461,8.8578 -9.908,9.4233 -29.3188,19.1548 -19.064,9.5579 -20.3664,10.39975 -27.8863,18 -7.3775,7.4625 -8.5544,9.2969 -18.241,28.3432 -6.9184,13.6033 -11.5461,21.4938 -13.9308,23.749 -1.9636,1.857 -4.7128,5.1741 -6.1,7.37295 -3.7715,5.9748 -8.6535,10.4402 -12.2882,11.2385 -2.7202,0.5975 -3.702,0.25755 -6.175,-2.11185 -6.16,-5.9016 -8.7737,-12.5434 -11.8436,-30.0846 -0.5,-2.862 -1.4159,-6.1492 -2.0378,-7.3112 -0.6219,-1.162 -1.5105,-4.2196 -2,-6.7925 -1.6776,-8.8061 -5.4,-16.0329 -10.4975,-22.0941 -2.8,-3.3307 -4.6214,-5.07 -7.6076,-5.0882 -2.1949,-0.0136 -3.8925,1.7296 -6.3108,4.2607 -3.9426,4.1266 -6.6775,10.4156 -14.2643,32.7398 -0.8412,2.475 -3.7064,9.89959 -6.3602,16.4996 -2.6538,6.6 -6.1728,16.1118 -7.83,21.1432 -1.6571,5.03135 -4.9568,12.3918 -7.3236,16.3514 -5.3083,8.8805 -19.4265,16.4116 -19.4265,18.9943 v 57.3894 l 21.5927,21.5888 h 17.9692 c 0,0 1.1401,-6.2035 2.2477,-7.9781 2.1434,-3.43434 4.8427,-3.1279 7.1383,0.80275 2.2859,3.914 2.0995,7.1803 2.0995,7.18029 l 114.3486,0 c 0,0 0.3848,-7.01175 0.8522,-9.9788 0.8337,-5.2934 4.4561,-17.3243 5.6563,-18.7967 0.8696,-1.0669 1.28,-1.0669 2.3218,0 1.6948,1.7355 5.062,11.3513 5.4093,13.9802 0.51,3.86075 0.5625,11.85293 -0.4817,14.7953 H 2235.29 c 0,0 1.8516,-7.93564 2.8776,-11.0656 1.9637,-7.08625 4.9759,-12.3339 7.657,-13.3627 2.6574,-1.0197 7.0469,3.2795 9.1884,9 1.1336,3.02995 2.9506,6.6666 3.742,8.23745 0.9442,1.8741 1.2667,4.5784 1.2597,7.1877 h 34.8394 l 21.5877,-21.5878 V 206.81671 c 0,0 -5.4092,-0.52501 -6.8048,-1.1609 -2.0188,-0.91983 -3.3075,-0.83477 -6.2985,0.40753 -2.0677,0.85885 -5.2109,2.10106 -6.9901,2.7664 -13.5124,8.35757 -22.6997,22.84467 -32.2458,35.54328 -6.0538,7.75198 -14.3477,13.59073 -25.3793,16.43785 -11.0373,1.67 -20.2494,3.99056 -31.7271,5.65629 -2.3053,0.36353 -4.6848,5.9e-4 -6.6443,-1.0127 -3.7524,-1.94046 -13.2119,-12.72404 -15.9191,-18.14214 -1.0993,-2.2 -2.7471,-5.35244 -3.6556,-7.00244 -0.9084,-1.65 -2.556,-5.02145 -3.668,-7.49645 -4.3612,-9.70692 -7.0844,-13.50572 -16.1167,-22.57579 -8.0621,-8.09577 -9.8439,-9.42305 -12.6835,-9.42305 -5.8206,0 -13.0847,4.67617 -22.8598,14.70885 -12.6476,12.98081 -14.5729,14.28894 -20.995,14.28894 -3.3635,0 -5.7853,-0.54885 -6.7678,-1.5314 -0.841,-0.84096 -6.9798,-12.42819 -13.6467,-25.7497 0,0 -9.0463,-15.9854 -13.5633,-22.28683 -4.517,-6.30144 -12.2235,-15.75115 -12.2235,-15.75115 -7.5189,-7.60156 -15.4729,-14.7893 -17.6729,-15.96855 -3.2726,-1.7542 -6.2242,-2.9508 -14.0546,-2.97941 -3.9181,-0.1785 -10.1706,1.28913 -13.1895,3.48578 -4.8092,4.3973 -8.2123,8.76946 -11.115,13 z"/>
    <path
       style="fill:#fd5f00"
       d="m 2026.2911,160.86238 c -2.632,0.0316 -5.1745,0.35935 -6.9037,1.0127 -4.3729,1.65219 -7.8752,5.50488 -16.339,17.94455 -4.9357,7.25435 -11.2588,14.86806 -17.1418,20.62448 -8.4928,8.31021 -10.5798,9.74608 -23.3291,16.14145 -13.022,6.53218 -14.5542,7.61432 -21.9954,15.46219 -4.4,4.64049 -10.7049,12.83033 -14,18.19154 -3.3,5.36121 -7,11.16394 -8.2374,12.90574 -1.2287,1.7418 -3.7887,5.47117 -5.6934,8.28685 -1.9047,2.81567 -5.9801,7.5158 -9.0525,10.4481 -3.0724,2.93228 -7.4803,7.82831 -9.7936,10.88034 -7.5828,10 -16.8529,19.87343 -19.8587,21.11849 -6.7125,2.78034 -10.9813,-2.53605 -17.3271,-21.56309 -8.214,-24.62856 -13.0894,-35.6603 -16.586,-37.53164 -1.5659,-0.83803 -3.5,-1.48891 -7.2248,-0.0864 -2.8666,1.07958 -5.2422,3.06232 -9.2131,9.2 -6.0204,9.30657 -7.7574,12.8502 -14.079,28.71374 -2.9735,7.46185 -7.8493,17.65358 -10.8309,22.64989 -5.74,9.61872 -17.8492,19.50643 -22.2349,20.60716 v 47.33015 l 21.5927,21.5927 16.4255,1e-4 c -1.093,-1.50713 0.1112,-9.13045 2.4453,-12.33024 3,-4.11861 4.7719,-4.74166 7.2,-2.5441 2.8931,2.61812 3.8671,4.60758 4.8659,9.9541 0.4641,2.48286 0.7828,4.92371 0.7163,4.9153 l 111.0141,0 c 0,0 -0.2014,-1.17564 0.5187,-10.74934 1.4198,-18.8774 4.7803,-31.66539 8.3116,-31.66538 2.1516,0 5.2402,5.37852 6.5208,11.34964 1.5,6.99756 2.3803,31.06508 0.9633,31.06508 l 276.01,0 c -1.1608,0 -1.416,-0.84191 -1.1239,-1.72901 0.5185,-0.6442 2.5765,-6.4262 4.5695,-12.84399 2.9218,-9.40911 4.2137,-12.16517 6.6937,-14.25189 3.0241,-2.54458 3.1325,-2.567 6.0639,-0.8398 1.8776,1.1063 4.033,3.97699 5.8292,7.7558 3.5091,7.3822 7.2355,18.33216 6.7431,19.80939 -0.3471,1.04085 -0.5853,2.10434 -1.7908,2.10434 h 34.8393 l 21.5928,-21.59264 V 232.81345 c 0,0 -4.479,-1.07697 -6.4146,-1.51905 -2.9979,-0.19633 -7.8607,0.0819 -12.3377,1.51905 0,0 -4.6213,1.14689 -13.622,10.25049 -5.5738,5.6375 -10.9589,11.82054 -11.9672,13.74555 -1,1.925 -5.5991,7.15402 -10.1887,11.60899 0,0 -3.9141,6.20496 -8.3362,8.10159 -4.4221,1.89666 -17.2283,0.67925 -17.2283,0.67925 -11.3011,0.45028 -18.6983,1.21026 -21.5013,2.21066 -10.2504,3.65837 -14.7947,4.41827 -18.1175,3.02574 -5.4985,-2.30427 -9.6533,-6.67482 -13.2515,-13.95549 -1.9219,-3.88894 -3.8655,-7.53824 -4.3102,-8.11394 -0.4447,-0.57573 -1.2556,-2.41912 -1.8154,-4.08785 -1.4979,-4.46527 -16.7748,-27.2806 -21.5631,-32.20878 -6.6253,-6.81884 -8.5445,-6.29925 -20.1058,5.49574 -5.2562,5.3625 -11.454,12.8966 -13.7702,16.74659 -2.3162,3.85 -5.2171,8.12215 -6.4591,9.49715 -1.242,1.375 -4.1446,4.63694 -6.4467,7.24944 -4.1135,4.66831 -7.5407,5.9645 -10.5592,3.98905 -1.6026,-1.04886 -7.7733,-13.73441 -9.843,-20.22929 -0.9639,-3.025 -2.7648,-7.30949 -4,-9.50949 -1.2365,-2.2 -3.4655,-7.1415 -4.9523,-10.9915 -2.3231,-6.01581 -10.8323,-23.9 -13.5603,-28.50378 -0.4888,-0.825 -2.57,-4.4278 -4.6312,-8 -4.3466,-7.5392 -21.3941,-25.55885 -26.1079,-27.60223 -2.1469,-0.9307 -5.6809,-1.3867 -9.0649,-1.34616 z"/>
    <path
       style="fill:#fd9000"
       d="m 2027.3902,178.93043 c -2.0288,-0.012 -4.0507,0.73216 -7.1877,2.32179 -5.7885,2.93321 -8.9862,6.45 -18.0186,19.84644 -9.1084,13.50903 -23.9969,28.13887 -33.6043,33.01154 -9.7579,4.94903 -26.8189,22.2178 -31.826,32.20878 -4.2211,8.42282 -11.5171,15.82254 -20.9703,21.26669 -3.7387,2.1532 -10.0629,7.08085 -14.0543,10.95444 -8.0651,7.82713 -21.4252,24.92505 -25.0828,32.11 -3.1723,6.23164 -6.7895,9.54986 -9.4848,8.69439 -3.4797,-1.10442 -7.1115,-8.83389 -12.9304,-22.64988 -8.6451,-20.52637 -12.023,-28.35173 -13.301,-30.96144 -1.278,-2.6097 -2.988,-7.5525 -6.5702,-8.10159 0,0 -1.5185,-0.0983 -3.8902,2 -2.3717,2.09903 -8.8981,6.83327 -17.8705,24.72468 -4.9175,9.80579 -10.9347,20.11112 -14.2642,24.42829 -6.1734,8 -13.9948,14.58648 -18.488,15.57334 -2.2572,0.49581 2.927,0.40753 2.927,0.40753 l -6.3232,38.43318 21.5878,21.5878 14.9805,0 c -0.6316,0.019 -1.5771,-1.06901 -0.8027,-7.50141 0.9142,-7.59384 3.2232,-13.01241 6.4343,-15.11639 2.0239,-1.32617 2.6127,-1.32131 5.3352,0.0864 1.6826,0.87 3.6851,2.81927 4.4584,4.32249 1.8607,3.61687 3.5931,15.34043 2.223,16.91949 -0.8488,0.98231 -0.5564,1.28938 -2.433,1.28938 l 110.0261,0 c 0.4,-0.4 1.6206,-11.47595 2.223,-22.74869 1.4307,-26.77584 2.4979,-35.41581 4.4831,-38.44553 3.5587,-5.43126 9.3276,-1.79456 11.8066,7.4347 1.7066,6.35334 3.456,28.80141 3.2233,41.28603 -0.2,10.72867 -0.1437,12.47349 0.8275,12.47349 h 266.908 c 2.6515,-5.02595 4.2591,-9.32129 6.3973,-15.96854 4.0215,-14.4438 5.392,-17.81945 8.6821,-21.25434 3.3548,-3.50254 5.4743,-3.4686 8.4968,0.12349 2.9224,3.47311 9.317,20.19328 11.115,29.07189 0.7175,3.54306 1.8961,7.7556 2.5811,8.0275 h 29.8499 l 21.5878,-21.58779 V 274.39588 257.30349 l -3.1122,-1.29675 c -13.7626,-5.70676 -17.5393,-4.32994 -25.972,3.97669 -3.5318,3.479 -8.0287,8.5873 -10,11.3373 -1.9749,2.75 -8.1312,9.60239 -13.6714,15.23989 -9.2717,9.43453 -10.3715,10.2505 -13.8691,10.2505 -2.09,0 -5.4108,-0.66935 -7.3853,-1.49435 -1.9745,-0.825 -4.7791,-1.51305 -6.2244,-1.51905 -1.4453,0 -4.8699,-0.68441 -7.6199,-1.51905 -5.7453,-1.74374 -10.0157,-1.13619 -21,3 -15.1258,5.69334 -19.5689,3.34359 -28.9236,-15.28929 -7.4138,-14.76708 -17.0421,-29.88199 -22.8846,-35.92614 -6,-6.2156 -8.8272,-5.93022 -15.7833,1.59315 -6.2712,6.78263 -14.8908,20.22312 -19.9205,31.07259 -7.4288,16.02438 -10.7992,20.08109 -16.6972,20.08109 -2.6936,0 -3.8222,-0.74883 -6.385,-4.2484 -4.7819,-6.52982 -15.0761,-29.59467 -18.4879,-41.43423 -0.9216,-3.19813 -3.0141,-8.48625 -4.6559,-11.7572 -1.6418,-3.27092 -3.5698,-7.61662 -4.2855,-9.64534 -0.7158,-2.02873 -2.3878,-5.42051 -3.7173,-7.54585 -1.3296,-2.12532 -2.9294,-5.33369 -3.5445,-7.12595 -3.3267,-9.6939 -21.9669,-31.56439 -29.6276,-34.76523 -2.1173,-0.88462 -3.6955,-1.34929 -5.2735,-1.35849 z"/>
    <path
       style="fill:#fdaf00"
       d="m 2027.1679,196.08456 c -7.2867,-0.11729 -14.0846,5.76607 -23.255,19.62415 -5.6655,8.56167 -11.644,13.77828 -27.1824,30.64033 -6.49,7.04298 -21.1946,21.35056 -22.2423,25.03344 -0.7464,2.62387 -5.0536,9.81568 -5.8415,11.27555 -2.7979,5.18344 -4.5722,12.59859 -4.5572,19.08074 0.016,7.13079 4.5277,12.53917 7.0272,15.43749 2.0349,2.35958 8.4133,14.7951 10.4851,24.10719 1.8194,8.17786 1.8175,9.53717 -0.1482,46.67062 -0.3684,6.95509 0.02,13.81409 0.3581,14.69649 0.1902,0.20639 1.2028,1.74212 1.3832,2.13656 l 264.9815,0 1.482,-7.47669 c 6.2622,-25.30403 12.2125,-41.43482 15.7833,-42.80508 2.0687,-0.79384 5.4011,1.91765 7.5335,6.1256 2.838,5.6 8.8068,24.83045 10.1517,32.69043 0.7722,4.44028 0.979,11 8.4474,11.46574 h 23.2797 l 21.5928,-21.59274 v -108.9023 l -5.6242,-2.2477 c -4.9919,-1.26674 -10.8773,-3.25173 -16.2403,-2.23535 -3.3019,1.39642 -11.4978,11.84364 -11.4978,11.84364 -6.325,6.51549 -14.6503,15.56552 -18.5,20.10579 -13.5028,15.92374 -15.6508,16.38935 -28.0468,6.1 -5.7783,-4.79595 -13.8704,-7.55696 -19.5,-6.65665 -2.0837,0.33317 -7.0714,2.1742 -11.0903,4.1 -8.0326,3.8495 -13.0749,4.40337 -16.8948,1.8525 -6.2064,-4.14459 -9.4945,-8.51687 -15.6845,-20.84679 -5.1605,-10.27924 -8.0958,-14.73097 -14,-21.25434 -6.4558,-7.12699 -7.9204,-8.24979 -10.7445,-8.24979 -2.6171,0 -4.1658,0.96463 -7.7805,4.82885 -5.7884,6.18836 -8.5543,10.63238 -16.9565,27.18233 -13.0319,25.66917 -14.6386,27.99744 -19.2783,27.99744 -6.2463,0 -9.168,-5.09929 -23.4897,-40.92788 -10.4503,-26.14336 -21.5972,-49.61788 -28.0469,-59.07 -5.6913,-8.3406 -16.7974,-18.57434 -21.7853,-20.06873 -1.4018,-0.42 -2.7632,-0.64519 -4.1126,-0.66691 z m -63.9729,208.70256 -0.086,0 c 0.1329,0.14436 0.1393,0.1104 0.086,0 z m -132.2438,-107.976 c -3.4848,0 -9.616,6.89404 -14.4495,16.25259 -5.93,11.48159 -15.2168,24.62254 -20.1552,28.52848 -6.0222,4.76314 -19.9,9.32425 -19.9,9.32425 v 6.03915 26.24373 l 21.5927,21.59274 h 12.4735 c -0.8521,0 -0.7255,-4.19016 0.086,-11.82389 1.2051,-11.33204 3.0617,-15.79656 7.5829,-18.21624 3.8769,-2.07485 9.8746,1.73235 12.7205,8.06454 1.5232,3.38936 2.6057,21.97559 1.0621,21.97559 h 102.6532 c 0,0 2.6828,-6.12587 3.5197,-11.47809 0.5453,-3.48762 0.6339,-13.95225 0.1976,-24.99639 -0.8821,-22.32948 -0.6527,-28.87676 1.4573,-41 2.3801,-13.67699 2.3499,-13.82865 -4.0384,-20.21694 -4.6649,-4.66487 -5.954,-5.66577 -13.6221,-6.0762 -7.3238,-0.42397 -8.5064,-0.21119 -13.6591,2.39591 -6.5143,3.29594 -17.9709,15.02563 -23.3168,23.88488 -1.8817,3.11832 -5.1715,10.02081 -7.3111,15.3387 -3.7653,9.35778 -6.9093,14.17779 -9.2502,14.17779 -1.8261,0 -7.0678,-6.07486 -10.3616,-12 -1.6804,-3.025 -5.1289,-10.9 -7.6694,-17.5 -2.5404,-6.6 -5.8254,-14.02459 -7.2988,-16.49959 -1.4735,-2.475 -3.1911,-5.66726 -3.8162,-7.0889 -1.3979,-3.17869 -5.9855,-6.91599 -8.4968,-6.91599 z"/>
    <path
       style="fill:#fdcf00"
       d="m 1834.181,402.89936 c -1.0597,-0.67101 -1.1924,-1.81425 -0.5494,-4.73469 1.7136,-7.78338 1.0144,-16.48324 -1.7561,-21.85 -3.4841,-6.74907 -6.121,-8.95455 -10.7059,-8.95455 -4.5846,0 -8.4688,2.41 -10.8207,6.71397 -1.4704,2.69087 -1.735,5.40341 -1.5596,15.99058 0.1216,7.34314 -0.1831,14.72747 -0.7186,14.72747 h -10.0312 l -21.5937,-21.59372 V 357.0699 c 0,0 8.1176,-1.83031 12.4959,-3.75531 4.3782,-1.925 8.369,-3.5 8.8684,-3.5 3.7325,0 15.8902,-15.43912 20.7937,-26.40597 3.0883,-6.90716 8.5017,-12.05496 11.8051,-11.22586 4.8459,1.21625 11.0359,8.62068 14.7117,17.59801 1.9017,4.64423 6.4903,14.60774 10.1969,22.14114 9.5959,19.50244 13.8731,22.47301 18.7091,12.99364 1.0753,-2.1077 2.5058,-6.03015 3.1789,-8.71657 5.0675,-20.22413 17.5302,-39.14486 29.3072,-44.49398 10.0598,-4.56911 17.0352,-1.47525 22.7931,10.10959 3.5118,7.06585 3.7854,8.31042 4.7269,21.5 0.5496,7.7 1.7491,19.72555 2.6655,26.72345 1.2816,9.78582 1.4345,14.1726 0.6623,19 l -1,6.27655 c -1.3774,3.62577 0.4331,9.25271 -3.2703,9.26119 l -94.5081,0.21653 c -1.65,0.074 -3.6287,-1.40617 -4.3971,-1.8927 z m 128.1881,-8.83477 c 0.3126,-4.8125 1.5,-16.6244 2.6387,-26.24866 2.5741,-21.75704 2.5728,-24.90154 -0.017,-39.07645 -1.7237,-9.43411 -1.9982,-13.95151 -1.5752,-25.92489 0.6013,-17.02226 2.3014,-23.0525 8.4765,-30.06497 2.2109,-2.51074 5.3422,-6.78574 6.9585,-9.5 1.6163,-2.71427 4.5787,-6.65457 6.5832,-8.75623 2,-2.10166 3.6444,-4.41549 3.6444,-5.14185 0,-0.72635 1.9488,-3.50681 4.3307,-6.1788 2.3819,-2.67198 6.715,-8.45815 9.629,-12.85815 5.8995,-8.908 13.139,-16.91924 17.2406,-19.07846 3.4679,-1.82559 10.14,-1.82275 13.5994,0 3.0613,1.61813 16.8192,15.48303 20,20.1551 4.2714,6.27488 12.4741,21.07216 14.3671,25.91758 1.0743,2.75 4.6033,11.3 7.8421,19 3.2388,7.7 7.9264,19.2455 10.4168,25.65667 5.3905,13.87679 10.2654,22.51684 14.4404,25.59333 3.524,2.59687 4.1054,2.67592 7.6848,1.04502 2.055,-0.93631 4.7608,-5.43269 12.1351,-20.16589 13.4333,-26.83851 21.7386,-38.62935 27.2097,-38.62935 4.1476,0 14.2354,8.43978 17.3314,14.5 8.1285,15.9112 17.0317,27.95603 22.9737,31.08021 4.1423,2.17797 6.7123,1.75499 15.6769,-2.58021 6.849,-3.31208 9.3102,-4 14.3109,-4 10.6097,0 15.5956,4.30877 21.13,18.26052 3.0397,7.66264 3.4385,14.42842 1.2352,20.95453 -0.7957,2.35672 -2.5624,9 -3.9259,14.78495 -1.3636,5.775 -3.5852,14.325 -4.937,19 -1.3517,4.675 -2.7792,11.3125 -3.1723,14.75 -0.393,3.4375 -1.0323,8.22747 -1.4206,8.22747 h -259.6816 c -2.2193,-0.19134 -4.0571,-0.88883 -4.8047,-1.98021 -0.7476,-1.09138 -0.6362,-3.88404 -0.3203,-8.74726 z m 302.8804,3.5 c -0.5337,-2.8875 -1.4575,-8.175 -2.0528,-11.75 -0.5953,-3.575 -2.6285,-11.97016 -4.5181,-18.6559 -1.8897,-6.68575 -3.9889,-16.38336 -4.6648,-21.55025 -1.0985,-8.39569 -1.0414,-9.95941 0.5365,-14.71 3.6604,-11.02039 22.9839,-34.97058 35.2528,-43.69345 4.248,-3.02022 5.4786,-3.38964 11.2718,-3.38377 4.8074,0 7.2855,0.52468 9.5032,1.99341 1.65,1.09275 4.9062,2.05218 5.8687,2.05658 v 95.32717 l -21.5937,21.59372 h -23.8116 c -1.5712,-0.54731 -2.1384,-1.19194 -3.1425,-1.99278 -0.9689,-0.77276 -1.9333,-1.35975 -2.6495,-5.23469 z"/>
    <path
       style="fill:#fdf508"
       d="m 2026.7233,224.06966 c -1.505,0.024 -2.9596,0.63433 -5.8786,2.06244 -2.9328,1.43489 -6.4919,3.86583 -7.9163,5.39695 -1.4243,1.53112 -8.4345,11.55439 -15.5734,22.27939 -11.7825,17.701 -13.3584,20.61192 -17.0677,31.50484 -2.2474,6.6 -4.8289,14.02459 -5.7427,16.49958 -1.3058,3.53648 -1.7651,9.42816 -2.1365,27.50344 -0.3849,18.72865 -0.8277,24.23037 -2.3959,29.64 -1.0592,3.65384 -2.3857,11.01259 -2.9393,16.35139 -0.5536,5.33879 -1.2351,10.08732 -1.5191,10.54689 -0.8024,1.29838 -3.8388,13.02065 -1.8525,16.16615 1.9863,3.14548 5.7181,2.7664 5.7181,2.7664 h 32.7151 c 0.6875,-0.23839 3.6011,-1.87271 3.9396,-4.2237 0.2698,-1.87334 3.1289,-4.6397 4.6313,-4.06315 0.7936,0.30478 2.0328,1.77942 2.8281,3.22335 l 2.7911,5.0635 h 68.1226 c 0.8888,0 2.4128,-3.65555 3.3839,-5.71805 1.3457,-2.85782 2.3615,-3.7544 4.2607,-3.7544 2.0862,0 2.5701,0.5651 2.9887,3.49505 0.4432,3.10153 0.8584,5.9774 3.7791,5.9774 h 3.0752 123.5617 c 0,0 1.8249,-8 2.4329,-13.54795 0.608,-5.54106 2.5383,-15.88675 4.2978,-22.99569 3.4684,-14.01338 4.2485,-27.22229 2.0501,-34.93813 -1.8875,-6.62465 -6.6565,-13.167 -11.3249,-15.54864 -5.3883,-2.74887 -10.5516,-2.25764 -19.0808,1.81544 -12.0971,5.77695 -16.388,5.97063 -21.5877,1.0127 -4.1052,-3.91408 -10.2289,-11.96977 -12.6341,-16.62309 -2.8675,-5.54788 -10.4689,-15.36134 -13.8196,-17.83339 -4.2247,-3.11691 -7.1374,-2.9154 -13.0663,0.8892 -5.559,3.56719 -11.3607,11.64748 -14.6224,20.36514 -3.0543,8.16343 -10.8875,23.35899 -14.7953,28.71374 -1.9184,2.62878 -4.8435,5.48689 -6.5085,6.3479 -2.819,1.45778 -3.2049,1.42891 -5.6316,-0.38287 -3.2284,-2.41037 -10.6872,-16.76634 -16.6972,-32.13467 -7.696,-19.68025 -14.6536,-35.52469 -24.4159,-55.61202 -4.5692,-9.40187 -7.1434,-13.34724 -11.893,-18.21625 -6.2544,-6.4116 -10.5683,-9.14585 -17.8211,-11.31259 -1.5723,-0.46975 -2.6258,-0.73268 -3.6556,-0.71629 z m 269.6868,74.80391 c -5.8677,0.19298 -13.1058,4.04096 -20.081,11.01619 -8.1364,8.1364 -12.8431,17.26848 -15.2152,29.51649 -1.9538,10.08806 -1.8229,13.10164 1.272,27.91099 1.5741,8.83 2.6336,18.1536 3.8532,27.24408 0.6127,3.9875 1.6349,6.9085 1.9143,7.24945 0.8271,1 2.8898,2.97635 4.5201,2.97635 h 22.1805 c 11.9092,0 21.5937,-9.77698 21.5928,-21.5878 l -0.01,-66.36887 c -1,-0.34132 -4.5985,-3.54279 -6.4096,-6.94069 -1.811,-3.39789 -4.5992,-7.2859 -6.1997,-8.63264 -2.0251,-1.70404 -4.5567,-2.47779 -7.4224,-2.38355 z m -384.48,18.92019 c -2.134,0.0822 -4.3922,0.76305 -6.8666,2.0254 -11.6671,5.95209 -19.4951,19.15794 -25.194,42.49633 -1.0745,4.4 -2.4318,9.92367 -3.0133,12.27589 -1.0597,4.28502 -5.5063,9.22544 -8.3116,9.22544 -3.844,0 -10.0138,-9.58579 -24.8482,-38.60607 -1.7153,-3.3556 -3.7939,-6.78621 -4.6189,-7.61995 -0.825,-0.83375 -2.5081,-2.68909 -3.742,-4.13725 -1.2338,-1.44816 -3.0818,-2.6429 -4.1,-2.6429 -3.8517,0 -8.1634,7.72998 -8.1634,14.63474 0,4.02046 0.7387,5.78583 4.8659,11.79425 6.1,8.88049 10.0451,18.75123 10.8186,27.03413 0.53,5.67572 0.2878,7 -2.0748,11.52255 -1.4689,2.80933 -2.9916,4.56133 -2.0748,6.06384 1.0226,1.24703 3.8335,2.92601 5.7798,2.92696 3.2908,0 2.8769,-2.42699 4.1126,-4.8165 2.1286,-4.11633 9.5068,-6.81797 13.8814,-5.0882 3.9158,1.54836 6.2013,3.9 6.6937,5.4834 0.5893,1.89407 1.9019,4.4213 1.9019,4.4213 h 67.6409 c 3.0151,1.7e-4 1.3461,-12.4735 1.3461,-12.4735 l 0.037,-7.49644 c 0.02,-4.32032 -0.7762,-10.54579 -1.8772,-14.68415 -1.0512,-3.95128 -2.2224,-11.60722 -2.5935,-17 -0.4626,-6.72936 -1.6273,-12.73513 -3.705,-19.10544 -2.5609,-7.85178 -3.6507,-9.82332 -7.0642,-12.74519 -2.8548,-2.44366 -5.7113,-3.60282 -8.8302,-3.4827 z m -119.5356,42.28637 c -2.0465,0.0335 -4.815,0.66128 -10.0652,1.86485 l -5.8786,1.34616 v 19.90818 c 0.028,11.74664 9.5332,21.5878 21.5878,21.5878 h 8.5462 c 0.8861,-1.25759 1.1362,-3.49506 1.1362,-3.49506 0.3207,-0.83583 -0.3609,-4.09778 -1.5191,-7.24944 -1.1583,-3.15166 -2.5197,-10.28675 -3.0257,-15.85739 -1.0449,-11.5 -2.6881,-15.53699 -7.0395,-17.33939 -1.2812,-0.5307 -2.3418,-0.78875 -3.7421,-0.76571 z"/>
    <path
       style="fill:#fdfd5c"
       d="m 1782.3419,385.88891 c 2.3192,1.0567 7.8268,9.26223 9.1823,13.68061 0.6388,2.08207 0.1168,3.98858 -3.7228,2.65218 -2.8101,-1.72229 -4.2914,-2.79613 -6.5626,-5.51088 -2.4957,-2.98302 -4.0468,-6.62515 -4.1678,-8.62308 -0.1849,-3.05477 2.5824,-2.6 5.2709,-2.19883 z m 107.6274,17.26354 c -0.9157,-0.76551 -1.8329,-2.34344 -2.4523,-7.634 -2.97,-25.36746 3.7755,-49.03136 15.7615,-55.29314 4.179,-2.18322 9.2237,-1.76623 12.5562,1.03789 3.4,2.86105 8.4168,11.92315 10.5465,19.05139 0.8217,2.75 2.2118,6.35 3.0893,8 0.8774,1.65 1.5981,5.30651 1.6015,8.12557 0,3.23713 0.8981,7.14257 2.4272,10.6 5.1133,11.56206 0.7065,17.75183 0.7065,17.75183 h -37.1276 c -3.025,0 -6.0767,-0.84284 -7.1088,-1.63961 z m 76.3708,-0.58786 c -1.5461,-1.96637 0.1623,-13.71761 2.7226,-18.72764 6.2526,-12.23475 11.9578,-17.02236 20.285,-17.02236 h 4.5938 l 0.056,-19.25 c 0.1043,-35.94347 7.7084,-60.25174 23.7569,-75.94494 6.4941,-6.35035 9.4387,-7.80506 15.7991,-7.80506 3.5464,0 5.2591,0.72247 9.317,3.93 2.7346,2.16154 5.871,5.19904 6.9699,6.75 12.3352,17.41 29.112,53.48138 33.7877,72.64601 3.513,14.3985 3.9508,22.21605 1.9422,34.67393 -0.9311,5.775 -1.924,12.80836 -2.2064,15.62968 l -1.5077,7.34779 h -55.778 c -4.2201,0.058 -5.5343,-1.74215 -6.963,-4.99782 -0.5984,-1.36381 -2.1968,-4 -3.5521,-5.86202 -1.3552,-1.8603 -2.8647,-4.83352 -3.3544,-6.60715 -1.1846,-4.29027 -9.2237,-13.32254 -12.0615,-12.51048 -1.1579,0.33135 -1.107,2.76989 -1.107,2.76989 l -0.449,10.63316 c -0.517,12.24315 -0.2,12.97108 -1.3318,14.5 -0.7607,1.02772 -3.3168,2.11784 -4.8654,2.07442 h -21.0698 c -1.9,0 -3.7806,-1.35267 -4.9841,-2.22747 z m 136.9909,0.42747 c -1.652,-1.48106 -2.2062,-6.96828 -0.6842,-15.80784 2.4327,-14.12937 6.1876,-20.4109 16.3156,-27.294 8.1244,-5.52151 13.6714,-11.26122 16.7105,-17.29128 10.8133,-21.45484 16.3886,-22.62 32.7803,-6.85076 11.8952,11.44341 18.0894,16.06641 21.527,16.06641 1.7854,0 5.2936,-1.92783 10,-5.5 5.8742,-4.45029 7.9922,-5.5 11.0977,-5.5 5.6453,0 9.3337,3.56985 12.1694,11.77818 2.147,6.21505 2.3221,8.33114 2.3221,28.06781 0,19.03834 -0.4665,23 -1.6944,24.13148 h -116.3056 c -1.65,0 -3.354,-0.89233 -4.2471,-1.8 z m 167.1693,0.0572 c -0.6356,-0.43319 -1.0799,-4.42806 -1.0829,-9.73469 0,-4.95 -0.3418,-11.25 -0.7534,-14 -0.7546,-5.04203 1.1404,-20.7322 3.5022,-28.9967 0.6671,-2.33436 2.9112,-5.76577 5.3955,-8.25 3.5536,-3.55366 4.8963,-4.2533 8.1623,-4.2533 2.15,0 4.8649,0.66946 6.0331,1.48768 2.5767,1.8048 7.7839,11.19305 12.2093,22.01232 3.8673,9.45515 8.1118,15.12765 12.3914,17.81634 0.064,5.23708 0.089,4.06743 0.089,4.06743 0,11.77113 -9.5984,21.59372 -21.5937,21.59372 h -20.7717 c -1.7796,0 -3.1139,-1.23992 -3.5811,-1.7428 z m -474.4222,-1.53469 c 0,-1.64265 2.0176,-3.7 3.6286,-3.7 1.441,0 4.3714,2.72929 4.3714,4.07143 0,0.51071 -1.8,0.92857 -4,0.92857 -2.6154,0 -4,-0.45 -4,-1.3 z"/>
    <path
       style="fill:#fbfb9e"
       d="m 1900.5781,403.10152 c -1.1,-0.26458 -2.3109,-0.77488 -2.6909,-1.13399 -1.1326,-1.07032 2.071,-21.09341 4.1136,-25.71114 5.5785,-12.61104 17.2923,-8.09162 24.4721,9.44184 1.7154,4.189 4.3533,9.23384 5.8621,11.21075 3.145,4.12094 3.3889,5.44383 1.1613,6.29862 -1.8295,0.70207 -29.9349,0.6115 -32.9182,-0.10608 z m 71.75,-0.31809 c -4.7607,-1.91359 -1.8407,-8.73204 4.6492,-10.85625 5.4948,-1.79848 7.4812,-1.3315 11.3979,2.67957 3.8943,3.98818 4.7803,7.58045 2.1211,8.6 -2.3857,0.91547 -15.6031,0.60689 -18.1682,-0.42417 z m 55.14,0.0783 c -1.6129,-0.67197 -2.2744,-2.11782 -2.8074,-6.1361 -0.3835,-2.89134 -1.0694,-5.96664 -1.5241,-6.834 -1.1203,-2.13699 0.4,-30.39 1.9579,-36.38289 1.5246,-5.86543 6,-10.69415 9.9113,-10.69415 12.8851,0 24.2076,13.74514 29.6549,36 1.4383,5.87654 1.9159,22.57633 0.6674,23.34184 -12.511,0.51354 -25.4557,1.86412 -37.86,0.7053 z m 81.3565,-0.12922 c -2.5582,-1.4899 -1.2446,-8.45303 2.4371,-12.91791 1.5873,-1.925 3.3381,-4.0625 3.8906,-4.75 0.5526,-0.6875 3.1645,-1.25 5.8042,-1.25 5.6133,0 9.4023,2.51078 15.4185,10.21705 4.6828,5.99842 5.3878,7.73578 3.5988,8.86856 -1.9414,1.22929 -29,1.08361 -31.1492,-0.1677 z m 51.099,-0.16792 c -2.5934,-2.10947 -4.1566,-7.48139 -3.4996,-12.02649 2.2727,-15.72302 9.0245,-21.59024 17.5808,-15.27757 4.7269,3.48737 7.9651,8.71021 9.0953,14.6698 1.5276,8.05507 1.259,11.66349 -0.9562,12.84908 -2.8,1.49855 -20.3221,1.32915 -22.2203,-0.21482 z m 114.3024,-0.0718 c -0.8866,-1.06825 -0.5795,-2.44924 1.3526,-6.083 1.427,-2.68387 2.4995,-6.3634 2.4995,-8.57528 0,-3.25666 0.5943,-4.36413 3.7279,-6.94709 6.0499,-4.98688 11.113,-3.49855 18.5783,4.18296 9.4144,5.78469 13.5049,8.29604 13.5049,8.29604 0,0 -1.8222,3.5694 -5.2553,6.35888 -5.4986,4.39413 -10.9818,5 -13.9895,5.06676 -16.6184,0.0808 -19.5043,-1.19788 -20.4184,-2.29927 z m -68.5931,-0.58959 c -0.7128,-1.15322 3.7924,-10.56708 5.5882,-11.67692 2.154,-1.33128 4.9842,3.53725 4.6561,8 l -0.2991,4.07852 -4.6594,0.30109 c -1.7718,0.39301 -3.8815,-0.48441 -5.2858,-0.71248 z"/>
  </g>
  <g>
    <path
       style="fill:#fd9000"
       d="m 49.860428,85.440839 c 0.108727,-0.04387 0.286643,-0.04387 0.39537,0 0.108726,0.04387 0.01977,0.07977 -0.197685,0.07977 -0.217454,0 -0.306412,-0.0359 -0.197685,-0.07977 z"/>
    <path
       style="fill:#fd9000"
       d="m 37.000611,85.560516 c 0.108727,-0.04387 0.286643,-0.04387 0.39537,0 0.108726,0.04387 0.01977,0.07977 -0.197685,0.07977 -0.217453,0 -0.306412,-0.0359 -0.197685,-0.07977 z"/>
    <path
       style="fill:#fd9000"
       d="m 11.809929,85.368749 c 0.430605,-0.08284 1.085906,-0.08317 1.581478,-7.91e-4 0.777724,0.129267 0.718197,0.140717 -0.735261,0.141454 -1.371142,6.33e-4 -1.48368,-0.01801 -0.846217,-0.140654 z"/>
    <path
       style="fill:#fd9000"
       d="m 70.818023,85.594019 c 0.153878,-0.0401 0.367377,-0.03746 0.474443,0 0.107082,0.04332 -0.01882,0.07613 -0.279763,0.0729 -0.260944,0 -0.348542,-0.03867 -0.19468,-0.07876 z"/>
    <path
       style="fill:#fd9000"
       d="m 66.307804,85.592019 c 0.195708,-0.0377 0.515958,-0.0377 0.711666,0 0.195708,0.03769 0.03558,0.06854 -0.355833,0.06854 -0.391416,0 -0.551541,-0.03084 -0.355833,-0.06854 z"/>
    <path
       style="fill:#fd9000"
       d="m 65.526949,85.595619 c 0.114167,-0.04568 0.25057,-0.04 0.303122,0.01248 0.05255,0.05255 -0.04086,0.08993 -0.207569,0.08306 -0.184242,0 -0.221707,-0.04506 -0.09555,-0.09555 z"/>
    <path
       style="fill:#fd9000"
       d="m 58.56041,85.591819 c 0.19672,-0.03783 0.481386,-0.03639 0.632591,0 0.151206,0.03958 0,0.07053 -0.357683,0.06878 -0.347925,0 -0.471628,-0.03414 -0.274908,-0.07197 z"/>
    <path
       style="fill:#fd9000"
       d="m 51.206867,85.590219 c 0.240385,-0.03635 0.596217,-0.03538 0.790739,0 0.194506,0.03754 0,0.06728 -0.437089,0.06609 -0.434906,0 -0.59405,-0.0319 -0.35365,-0.06825 z"/>
    <path
       style="fill:#fd9000"
       d="m 48.04391,85.590219 c 0.240385,-0.03635 0.596217,-0.03538 0.790739,0 0.194506,0.03754 0,0.06728 -0.437089,0.06609 -0.434906,0 -0.59405,-0.0319 -0.35365,-0.06825 z"/>
    <path
       style="fill:#fd9000"
       d="m 38.236561,85.594719 c 0.152217,-0.03978 0.4013,-0.03978 0.553517,0 0.152218,0.03978 0.02768,0.07233 -0.276758,0.07233 -0.304435,0 -0.428976,-0.03255 -0.276759,-0.07233 z"/>
    <path
       style="fill:#fd9000"
       d="m 35.231751,85.590419 c 0.239198,-0.03624 0.630614,-0.03624 0.869814,0 0.239199,0.03624 0.04349,0.06588 -0.434908,0.06588 -0.478397,0 -0.674105,-0.02965 -0.434906,-0.06588 z"/>
    <path
       style="fill:#fd9000"
       d="m 15.621418,85.586419 c 0.587123,-0.03043 1.547871,-0.03043 2.134995,0 0.587124,0.03043 0.10675,0.05532 -1.067498,0.05532 -1.174246,0 -1.654621,-0.0249 -1.067497,-0.05532 z"/>
    <path
       style="fill:#fd9000"
       d="m 9.690874,85.592119 c 0.195707,-0.0377 0.515957,-0.0377 0.711665,0 0.195708,0.03769 0.03558,0.06854 -0.355832,0.06854 -0.391417,0 -0.551541,-0.03084 -0.355833,-0.06854 z"/>
    <path
       style="fill:#cf0009"
       d="m 73.256176,85.604875 c 0.108727,-0.04387 0.286643,-0.04387 0.39537,0 0.108727,0.04387 0.01977,0.07977 -0.197685,0.07977 -0.217453,0 -0.306411,-0.0359 -0.197685,-0.07977 z"/>
    <path
       style="fill:#ae0011"
       d="m 76.595673,85.602925 c 0.108726,-0.0439 0.286643,-0.0439 0.395369,0 0.108727,0.0439 0.01977,0.0798 -0.197685,0.0798 -0.217453,0 -0.306411,-0.0359 -0.197684,-0.0798 z"/>
  </g>
</svg>
